<svg xmlns="http://www.w3.org/2000/svg" xmlns:xlink="http://www.w3.org/1999/xlink" width="200" zoomAndPan="magnify" viewBox="0 0 150 30.000001" height="40" preserveAspectRatio="xMidYMid meet" version="1.0"><defs><g/></defs><g fill="#ffffff" fill-opacity="1"><g transform="translate(5.163808, 22.500002)"><g><path d="M 1.742188 -0.71875 L 1.949219 -0.253906 L 2.390625 0.0234375 L 3.15625 -0.046875 L 3.855469 0.0234375 L 7.222656 -0.0234375 L 7.683594 0.046875 L 10.078125 -0.0703125 L 10.496094 -0.140625 L 11.796875 -0.511719 L 12.214844 -0.71875 L 13.140625 -1.460938 L 13.769531 -2.320312 L 14 -2.785156 L 14.140625 -3.226562 L 14.324219 -3.667969 L 14.371094 -5.550781 L 14.117188 -6.386719 L 13.699219 -7.335938 L 13.398438 -7.683594 L 13.027344 -8.011719 L 12.792969 -8.542969 L 12.957031 -8.984375 L 13.398438 -9.890625 L 13.675781 -10.726562 L 13.699219 -11.515625 L 13.652344 -12.234375 L 13.464844 -13.070312 L 13.304688 -13.558594 L 12.539062 -14.628906 L 12.191406 -14.953125 L 11.839844 -15.183594 L 11.515625 -15.441406 L 11.121094 -15.671875 L 10.679688 -15.882812 L 10.285156 -16.019531 L 9.378906 -16.230469 L 6.988281 -16.300781 L 6.570312 -16.207031 L 5.664062 -16.324219 L 5.246094 -16.230469 L 2.4375 -16.277344 L 1.925781 -16.042969 L 1.695312 -15.554688 L 1.695312 -15.046875 L 1.742188 -14.628906 L 1.71875 -14.140625 L 1.742188 -13.722656 L 1.695312 -12.351562 L 1.765625 -11.378906 L 1.671875 -6.941406 L 1.742188 -6.246094 L 1.695312 -1.160156 Z M 6.5 -9.914062 L 6.011719 -10.191406 L 5.757812 -10.84375 L 5.734375 -11.632812 L 6.011719 -12.304688 L 6.453125 -12.585938 L 8.847656 -12.421875 L 9.21875 -12.234375 L 9.402344 -11.863281 L 9.472656 -11.167969 L 9.3125 -10.496094 L 8.960938 -10.214844 L 8.289062 -9.984375 Z M 6.429688 -3.714844 L 6.011719 -3.878906 L 5.710938 -4.34375 L 5.78125 -5.734375 L 5.992188 -6.128906 L 6.386719 -6.429688 L 6.828125 -6.363281 L 7.3125 -6.410156 L 9.496094 -6.199219 L 9.890625 -6.035156 L 10.125 -5.617188 L 10.261719 -5.039062 L 10.148438 -4.363281 L 9.890625 -4.039062 L 9.496094 -3.785156 L 8.21875 -3.667969 Z M 6.429688 -3.714844 "/></g></g></g><g fill="#ffffff" fill-opacity="1"><g transform="translate(20.485339, 22.500002)"><g><path d="M 1.671875 -0.671875 L 1.972656 -0.230469 L 2.414062 0.0234375 L 7.664062 -0.0234375 L 8.078125 0.046875 L 9.496094 -0.0234375 L 10.914062 0.0703125 L 11.355469 0.0234375 L 11.839844 -0.207031 L 12.050781 -0.648438 L 12.097656 -1.089844 L 12.074219 -2.53125 L 12.121094 -2.972656 L 11.816406 -3.4375 L 11.121094 -3.667969 L 8.058594 -3.714844 L 7.617188 -3.644531 L 7.105469 -3.691406 L 6.59375 -3.644531 L 6.105469 -3.925781 L 5.898438 -4.644531 L 5.921875 -5.78125 L 6.128906 -6.269531 L 6.546875 -6.523438 L 7.453125 -6.523438 L 7.917969 -6.570312 L 9.148438 -6.5 L 9.773438 -6.546875 L 10.261719 -6.5 L 10.679688 -6.523438 L 11.144531 -6.78125 L 11.378906 -7.222656 L 11.421875 -9.054688 L 11.378906 -9.519531 L 11.167969 -9.960938 L 10.773438 -10.214844 L 9.84375 -10.238281 L 9.378906 -10.191406 L 8.894531 -10.191406 L 8.359375 -10.238281 L 6.523438 -10.214844 L 6.128906 -10.472656 L 5.851562 -10.890625 L 5.804688 -11.609375 L 6.035156 -12.28125 L 6.757812 -12.492188 L 11.214844 -12.515625 L 11.703125 -12.769531 L 11.957031 -13.1875 L 11.910156 -14.140625 L 11.839844 -14.582031 L 11.863281 -15.09375 L 11.933594 -15.535156 L 11.703125 -15.996094 L 11.214844 -16.207031 L 9.355469 -16.230469 L 8.9375 -16.183594 L 8.476562 -16.253906 L 7.453125 -16.207031 L 6.988281 -16.253906 L 6.082031 -16.230469 L 5.664062 -16.277344 L 2.625 -16.207031 L 1.949219 -16.042969 L 1.71875 -15.535156 L 1.765625 -14.605469 L 1.671875 -13.929688 L 1.765625 -12.746094 L 1.71875 -12.257812 L 1.765625 -11.839844 L 1.765625 -7.683594 L 1.695312 -7.199219 L 1.765625 -6.292969 L 1.71875 -5.363281 L 1.789062 -4.875 L 1.742188 -4.363281 L 1.765625 -3.925781 L 1.695312 -3.507812 L 1.742188 -2.972656 L 1.742188 -2.507812 L 1.789062 -1.601562 L 1.765625 -1.136719 Z M 1.671875 -0.671875 "/></g></g></g><g fill="#ffffff" fill-opacity="1"><g transform="translate(33.787213, 22.500002)"><g/></g></g><g fill="#ffffff" fill-opacity="1"><g transform="translate(40.078325, 22.500002)"><g><path d="M 2.414062 0.0703125 L 3.855469 0 L 4.503906 0.046875 L 5.246094 -0.0234375 L 5.710938 -0.207031 L 5.96875 -0.71875 L 5.921875 -2.578125 L 5.992188 -3.066406 L 5.921875 -5.503906 L 6.175781 -5.898438 L 6.757812 -6.152344 L 7.382812 -6.105469 L 7.917969 -5.710938 L 8.148438 -5.339844 L 8.3125 -4.851562 L 9.265625 -3.296875 L 9.425781 -2.902344 L 9.636719 -2.578125 L 10.078125 -1.71875 L 10.355469 -1.371094 L 10.585938 -0.929688 L 10.820312 -0.625 L 11.261719 -0.1875 L 11.796875 0.046875 L 14.140625 0.0234375 L 14.558594 -0.0234375 L 15.023438 0 L 15.511719 -0.117188 L 15.625 -0.625 L 14.1875 -3.25 L 13.882812 -3.621094 L 13.164062 -4.804688 L 12.910156 -5.132812 L 12.652344 -5.574219 L 12.46875 -5.96875 L 11.703125 -7.199219 L 11.609375 -7.730469 L 11.910156 -8.21875 L 12.632812 -8.824219 L 13.375 -9.773438 L 13.722656 -10.378906 L 13.882812 -10.796875 L 14.28125 -12.144531 L 14.441406 -13.628906 L 14.394531 -14.09375 L 14.464844 -15.535156 L 14.257812 -15.996094 L 13.746094 -16.207031 L 13.046875 -16.277344 L 12.28125 -16.183594 L 11.585938 -16.277344 L 10.890625 -16.253906 L 10.402344 -15.972656 L 10.214844 -15.535156 L 10.214844 -15.023438 L 10.148438 -14.582031 L 10.167969 -14.117188 L 9.984375 -12.609375 L 9.84375 -12.257812 L 9.707031 -11.773438 L 9.171875 -11.027344 L 8.359375 -10.449219 L 7.941406 -10.261719 L 7.429688 -10.191406 L 6.964844 -10.054688 L 6.453125 -10.054688 L 6.058594 -10.332031 L 5.945312 -10.820312 L 5.96875 -11.261719 L 5.945312 -12.933594 L 5.898438 -13.351562 L 5.945312 -13.90625 L 5.921875 -14.628906 L 5.96875 -15.578125 L 5.664062 -15.949219 L 4.992188 -16.160156 L 3.832031 -16.277344 L 3.390625 -16.253906 L 2.925781 -16.300781 L 2.414062 -16.277344 L 1.949219 -15.972656 L 1.742188 -15.535156 L 1.695312 -15.136719 L 1.742188 -12.304688 L 1.671875 -11.839844 L 1.742188 -11.378906 L 1.695312 -8.519531 L 1.765625 -8.125 L 1.671875 -7.175781 L 1.742188 -6.664062 L 1.71875 -5.757812 L 1.765625 -5.339844 L 1.695312 -4.386719 L 1.742188 -3.4375 L 1.71875 -3.066406 L 1.765625 -2.578125 L 1.71875 -2.113281 L 1.765625 -0.929688 L 1.996094 -0.207031 Z M 2.414062 0.0703125 "/></g></g></g><g fill="#ffffff" fill-opacity="1"><g transform="translate(56.165931, 22.500002)"><g><path d="M 13.699219 -0.371094 L 14.371094 -0.0703125 L 14.976562 0.117188 L 15.511719 -0.140625 L 15.71875 -0.625 L 15.835938 -6.941406 L 15.742188 -7.59375 L 15.789062 -8.101562 L 15.695312 -10.890625 L 15.765625 -11.816406 L 15.71875 -12.257812 L 15.71875 -13.1875 L 15.8125 -13.652344 L 15.765625 -14.347656 L 15.8125 -15.554688 L 15.535156 -15.972656 L 15.023438 -16.207031 L 14.558594 -16.253906 L 14.117188 -16.253906 L 13.605469 -16.207031 L 13.117188 -16.277344 L 12.699219 -16.230469 L 12.234375 -16.253906 L 11.679688 -16.019531 L 11.445312 -15.535156 L 11.421875 -11.308594 L 11.515625 -10.820312 L 11.515625 -10.378906 L 11.421875 -9.890625 L 11.445312 -8.960938 L 11.332031 -8.589844 L 11.003906 -8.683594 L 9.984375 -9.730469 L 9.636719 -10.007812 L 8.824219 -10.84375 L 8.453125 -11.121094 L 8.195312 -11.445312 L 7.707031 -11.957031 L 6.988281 -12.5625 L 6.734375 -12.910156 L 6.292969 -13.210938 L 6.058594 -13.558594 L 5.664062 -13.839844 L 5.363281 -14.234375 L 4.109375 -15.511719 L 3.179688 -16.136719 L 2.554688 -16.324219 L 1.996094 -16.042969 L 1.695312 -15.601562 L 1.742188 -12.351562 L 1.695312 -11.886719 L 1.765625 -10.9375 L 1.71875 -10.519531 L 1.742188 -10.03125 L 1.671875 -9.542969 L 1.765625 -6.222656 L 1.71875 -5.804688 L 1.71875 -5.363281 L 1.671875 -4.851562 L 1.671875 -4.410156 L 1.742188 -3.925781 L 1.71875 -2.972656 L 1.765625 -2.507812 L 1.695312 -1.625 L 1.765625 -1.160156 L 1.765625 -0.71875 L 1.972656 -0.207031 L 2.414062 0.046875 L 3.203125 0 L 4.363281 0.0703125 L 4.851562 0 L 5.386719 0.046875 L 5.851562 -0.1875 L 6.058594 -0.648438 L 5.992188 -1.113281 L 6.058594 -6.804688 L 5.96875 -7.289062 L 6.199219 -7.570312 L 6.5 -7.5 L 9.820312 -4.25 L 10.191406 -3.945312 L 12.445312 -1.695312 L 12.746094 -1.324219 L 13.117188 -1.023438 L 13.398438 -0.671875 Z M 13.699219 -0.371094 "/></g></g></g><g fill="#ffffff" fill-opacity="1"><g transform="translate(73.66961, 22.500002)"><g><path d="M 8.683594 0.277344 L 9.984375 0.253906 L 11.378906 0.0703125 L 13.117188 -0.511719 L 13.882812 -0.929688 L 14.234375 -1.207031 L 14.675781 -1.417969 L 15.324219 -1.972656 L 15.625 -2.390625 L 15.949219 -2.714844 L 16.972656 -4.273438 L 17.320312 -5.15625 L 17.507812 -6.035156 L 17.53125 -6.453125 L 17.644531 -6.917969 L 17.667969 -7.40625 L 17.761719 -8.078125 L 17.691406 -9.242188 L 17.53125 -10.191406 L 16.949219 -11.933594 L 16.507812 -12.792969 L 15.996094 -13.488281 L 15.347656 -14.210938 L 14.675781 -14.789062 L 14.140625 -15.160156 L 13.445312 -15.464844 L 13.09375 -15.71875 L 11.308594 -16.277344 L 9.960938 -16.507812 L 9.332031 -16.53125 L 6.871094 -16.183594 L 5.132812 -15.535156 L 4.78125 -15.277344 L 4.363281 -15.070312 L 3.574219 -14.488281 L 2.4375 -13.164062 L 1.71875 -11.933594 L 1.371094 -11.050781 L 0.976562 -9.265625 L 0.90625 -7.382812 L 0.976562 -6.894531 L 1.089844 -6.476562 L 1.136719 -6.035156 L 1.347656 -5.15625 L 2.414062 -3.042969 L 2.691406 -2.761719 L 2.996094 -2.390625 L 3.34375 -2.066406 L 3.597656 -1.765625 L 4.363281 -1.160156 L 6.175781 -0.230469 L 6.847656 0 L 7.359375 0.046875 L 8.195312 0.230469 Z M 9.984375 -3.832031 L 8.707031 -3.832031 L 8.195312 -3.902344 L 7.359375 -4.25 L 6.988281 -4.457031 L 6.363281 -4.96875 L 6.058594 -5.292969 L 5.734375 -5.734375 L 5.617188 -6.105469 L 5.410156 -6.523438 L 5.222656 -7.382812 L 5.222656 -8.800781 L 5.339844 -9.21875 L 5.410156 -9.660156 L 5.59375 -10.078125 L 5.734375 -10.496094 L 6.292969 -11.238281 L 7.453125 -12.027344 L 7.753906 -12.144531 L 8.660156 -12.375 L 9.3125 -12.421875 L 10.425781 -12.28125 L 10.84375 -12.191406 L 11.261719 -12.003906 L 11.980469 -11.492188 L 12.886719 -10.542969 L 13.164062 -9.660156 L 13.375 -9.21875 L 13.445312 -8.800781 L 13.398438 -7.382812 L 13.210938 -6.523438 L 13.046875 -6.105469 L 12.792969 -5.6875 L 12.652344 -5.339844 L 12.328125 -4.96875 L 11.214844 -4.203125 L 10.796875 -4.085938 L 10.449219 -3.925781 Z M 9.984375 -3.832031 "/></g></g></g><g fill="#ffffff" fill-opacity="1"><g transform="translate(92.287582, 22.500002)"><g><path d="M 5.664062 -0.464844 L 6.011719 -0.0234375 L 6.523438 0.140625 L 7.429688 0.140625 L 7.964844 -0.046875 L 8.335938 -0.511719 L 8.753906 -1.324219 L 9.078125 -2.253906 L 9.265625 -2.625 L 9.378906 -3.089844 L 10.308594 -5.292969 L 10.402344 -5.6875 L 10.820312 -6.59375 L 10.960938 -7.011719 L 11.144531 -7.035156 L 11.378906 -6.570312 L 11.492188 -6.175781 L 11.726562 -5.734375 L 11.933594 -5.292969 L 12.050781 -4.828125 L 12.421875 -3.992188 L 12.5625 -3.550781 L 12.910156 -2.691406 L 13.164062 -2.230469 L 13.328125 -1.8125 L 13.421875 -1.371094 L 13.769531 -0.535156 L 14.1875 -0.0234375 L 14.71875 0.1875 L 15.511719 0.140625 L 16.089844 -0.0703125 L 16.484375 -0.488281 L 16.578125 -0.929688 L 16.996094 -1.789062 L 17.25 -2.691406 L 17.621094 -3.507812 L 17.925781 -4.433594 L 18.15625 -4.851562 L 18.25 -5.292969 L 18.433594 -5.78125 L 18.621094 -6.453125 L 19.132812 -7.523438 L 19.667969 -9.242188 L 19.921875 -9.683594 L 20.152344 -10.542969 L 20.363281 -11.003906 L 20.457031 -11.445312 L 20.6875 -11.863281 L 21.105469 -13.1875 L 21.359375 -13.582031 L 21.964844 -15.535156 L 21.871094 -16.089844 L 21.152344 -16.277344 L 18.621094 -16.230469 L 18.203125 -16.253906 L 17.667969 -15.996094 L 17.320312 -15.578125 L 17.203125 -15.117188 L 16.996094 -14.71875 L 16.601562 -13.351562 L 16.390625 -12.886719 L 16.277344 -12.46875 L 15.996094 -11.773438 L 14.976562 -7.753906 L 14.765625 -7.800781 L 14.699219 -8.21875 L 14.441406 -8.613281 L 14.371094 -9.054688 L 13.535156 -11.285156 L 13.445312 -11.726562 L 13.234375 -12.191406 L 13.164062 -12.652344 L 12.191406 -15.324219 L 11.839844 -15.789062 L 11.238281 -15.996094 L 10.796875 -16.019531 L 10.285156 -15.765625 L 10.007812 -15.300781 L 9.589844 -14.394531 L 9.378906 -13.488281 L 8.730469 -11.796875 L 8.589844 -11.285156 L 8.078125 -9.984375 L 8.011719 -9.542969 L 7.847656 -9.101562 L 7.59375 -8.613281 L 7.523438 -8.21875 L 7.265625 -7.753906 L 7.128906 -7.730469 L 5.804688 -12.863281 L 5.574219 -13.304688 L 5.222656 -14.210938 L 5.132812 -14.699219 L 4.992188 -15.117188 L 4.875 -15.578125 L 4.503906 -15.996094 L 3.925781 -16.277344 L 3.527344 -16.230469 L 2.066406 -16.253906 L 1.695312 -16.207031 L 0.8125 -16.207031 L 0.324219 -16.042969 L 0.207031 -15.511719 L 0.324219 -14.90625 L 0.535156 -14.464844 L 0.8125 -13.605469 L 1.023438 -13.1875 L 1.136719 -12.699219 L 1.371094 -12.304688 L 1.8125 -10.980469 L 2.019531 -10.542969 L 2.136719 -10.125 L 2.34375 -9.660156 L 2.4375 -9.242188 L 2.972656 -7.964844 L 3.042969 -7.523438 L 3.273438 -7.035156 L 3.34375 -6.59375 L 5.0625 -2.253906 L 5.292969 -1.347656 Z M 5.664062 -0.464844 "/></g></g></g><g fill="#ffffff" fill-opacity="1"><g transform="translate(114.434147, 22.500002)"><g><path d="M 13.699219 -0.371094 L 14.371094 -0.0703125 L 14.976562 0.117188 L 15.511719 -0.140625 L 15.71875 -0.625 L 15.835938 -6.941406 L 15.742188 -7.59375 L 15.789062 -8.101562 L 15.695312 -10.890625 L 15.765625 -11.816406 L 15.71875 -12.257812 L 15.71875 -13.1875 L 15.8125 -13.652344 L 15.765625 -14.347656 L 15.8125 -15.554688 L 15.535156 -15.972656 L 15.023438 -16.207031 L 14.558594 -16.253906 L 14.117188 -16.253906 L 13.605469 -16.207031 L 13.117188 -16.277344 L 12.699219 -16.230469 L 12.234375 -16.253906 L 11.679688 -16.019531 L 11.445312 -15.535156 L 11.421875 -11.308594 L 11.515625 -10.820312 L 11.515625 -10.378906 L 11.421875 -9.890625 L 11.445312 -8.960938 L 11.332031 -8.589844 L 11.003906 -8.683594 L 9.984375 -9.730469 L 9.636719 -10.007812 L 8.824219 -10.84375 L 8.453125 -11.121094 L 8.195312 -11.445312 L 7.707031 -11.957031 L 6.988281 -12.5625 L 6.734375 -12.910156 L 6.292969 -13.210938 L 6.058594 -13.558594 L 5.664062 -13.839844 L 5.363281 -14.234375 L 4.109375 -15.511719 L 3.179688 -16.136719 L 2.554688 -16.324219 L 1.996094 -16.042969 L 1.695312 -15.601562 L 1.742188 -12.351562 L 1.695312 -11.886719 L 1.765625 -10.9375 L 1.71875 -10.519531 L 1.742188 -10.03125 L 1.671875 -9.542969 L 1.765625 -6.222656 L 1.71875 -5.804688 L 1.71875 -5.363281 L 1.671875 -4.851562 L 1.671875 -4.410156 L 1.742188 -3.925781 L 1.71875 -2.972656 L 1.765625 -2.507812 L 1.695312 -1.625 L 1.765625 -1.160156 L 1.765625 -0.71875 L 1.972656 -0.207031 L 2.414062 0.046875 L 3.203125 0 L 4.363281 0.0703125 L 4.851562 0 L 5.386719 0.046875 L 5.851562 -0.1875 L 6.058594 -0.648438 L 5.992188 -1.113281 L 6.058594 -6.804688 L 5.96875 -7.289062 L 6.199219 -7.570312 L 6.5 -7.5 L 9.820312 -4.25 L 10.191406 -3.945312 L 12.445312 -1.695312 L 12.746094 -1.324219 L 13.117188 -1.023438 L 13.398438 -0.671875 Z M 13.699219 -0.371094 "/></g></g></g><g fill="#ffffff" fill-opacity="1"><g transform="translate(131.937826, 22.500002)"><g/></g></g><g fill="#ffffff" fill-opacity="1"><g transform="translate(138.228938, 22.500002)"><g><path d="M 2.925781 0.09375 L 3.507812 0.117188 L 3.761719 0.046875 L 3.992188 0.046875 L 4.25 -0.046875 L 4.550781 -0.230469 L 4.738281 -0.324219 L 4.945312 -0.511719 L 5.15625 -0.742188 L 5.316406 -0.976562 L 5.527344 -1.695312 L 5.550781 -2.230469 L 5.457031 -2.507812 L 5.410156 -2.761719 L 5.269531 -3.066406 L 5.109375 -3.296875 L 4.945312 -3.4375 L 4.78125 -3.667969 L 4.527344 -3.808594 L 4.320312 -3.945312 L 4.039062 -3.992188 L 3.738281 -4.109375 L 3.484375 -4.132812 L 2.949219 -4.109375 L 2.4375 -4.015625 L 2.136719 -3.925781 L 1.949219 -3.832031 L 1.484375 -3.4375 L 1.113281 -3.042969 L 1.042969 -2.808594 L 0.929688 -2.554688 L 0.953125 -1.441406 L 1.023438 -1.183594 L 1.136719 -0.929688 L 1.277344 -0.742188 L 1.53125 -0.535156 L 1.648438 -0.347656 L 2.183594 -0.046875 L 2.390625 0.0234375 L 2.691406 0.09375 Z M 2.925781 0.09375 "/></g></g></g></svg>